<?xml version="1.0" standalone="no"?>
<!DOCTYPE svg PUBLIC "-//W3C//DTD SVG 20010904//EN"
 "http://www.w3.org/TR/2001/REC-SVG-20010904/DTD/svg10.dtd">
<svg version="1.0" xmlns="http://www.w3.org/2000/svg"
 width="303.000000pt" height="239.000000pt" viewBox="0 0 303.000000 239.000000"
 preserveAspectRatio="xMidYMid meet">

<g transform="translate(0.000000,239.000000) scale(0.100000,-0.100000)"
fill="#000000" stroke="none">
<path d="M1455 2080 c-3 -6 -36 -34 -73 -64 -44 -35 -75 -69 -90 -99 -21 -43
-42 -61 -42 -38 0 20 -48 3 -115 -41 -38 -25 -90 -56 -115 -68 -47 -24 -126
-100 -104 -100 7 0 16 5 19 11 4 6 19 7 36 4 20 -5 37 -1 56 13 16 11 51 33
78 49 28 17 123 73 213 127 l163 96 212 -126 c117 -70 238 -144 269 -165 53
-36 97 -52 83 -30 -3 5 0 13 6 16 16 11 -48 73 -106 102 -27 14 -81 46 -119
70 -70 45 -116 62 -116 43 0 -5 -7 -10 -15 -10 -8 0 -15 8 -15 19 0 10 -6 24
-14 30 -8 7 -17 22 -20 34 -3 12 -32 41 -65 65 -33 24 -65 50 -72 58 -13 16
-45 19 -54 4z"/>
<path d="M1255 1925 c-17 -13 -25 -24 -19 -25 15 0 61 37 54 44 -3 3 -19 -6
-35 -19z"/>
<path d="M1670 1941 c0 -11 39 -41 53 -41 13 0 -12 29 -35 41 -12 6 -18 6 -18
0z"/>
<path d="M875 1695 c-16 -13 -25 -24 -20 -25 6 0 24 11 40 25 17 13 26 24 20
25 -5 0 -23 -11 -40 -25z"/>
<path d="M1410 1709 c0 -5 5 -7 10 -4 6 3 10 8 10 11 0 2 -4 4 -10 4 -5 0 -10
-5 -10 -11z"/>
<path d="M1493 1686 c0 -14 3 -26 7 -26 5 0 12 -12 17 -27 6 -18 11 -22 14
-12 3 7 -4 31 -16 52 -21 36 -22 37 -22 13z"/>
<path d="M2069 1690 c13 -11 28 -20 35 -20 6 1 0 10 -13 20 -13 11 -28 20 -35
20 -6 -1 0 -10 13 -20z"/>
<path d="M1358 1693 c7 -3 16 -2 19 1 4 3 -2 6 -13 5 -11 0 -14 -3 -6 -6z"/>
<path d="M1440 1685 c-7 -9 -11 -17 -9 -20 3 -2 10 5 17 15 14 24 10 26 -8 5z"/>
<path d="M764 1644 c-27 -13 -54 -24 -61 -24 -7 0 -17 -9 -23 -19 -14 -27 -13
-36 4 -22 8 7 20 11 28 9 12 -3 86 37 98 52 3 4 12 9 19 12 13 4 13 5 0 10 -9
3 -38 -5 -65 -18z"/>
<path d="M973 1658 c9 -7 24 -22 33 -33 8 -11 13 -14 9 -7 -4 8 4 12 27 12 30
0 36 -5 57 -46 14 -31 19 -50 12 -57 -12 -12 -55 -2 -75 19 -9 8 -16 12 -16 8
0 -5 17 -25 37 -46 l37 -38 -27 0 c-18 0 -25 4 -21 14 3 7 -2 21 -11 30 -18
18 -45 22 -45 6 0 -5 7 -7 15 -4 14 6 20 -10 16 -43 -1 -8 9 -13 24 -13 15 0
25 -6 25 -14 0 -24 61 -68 84 -61 12 4 27 7 34 7 6 1 12 6 12 12 0 6 3 20 6
32 9 34 -21 56 -74 52 -30 -2 -47 1 -49 10 -3 6 2 12 10 12 33 0 38 25 16 79
-21 50 -22 51 -64 51 -26 0 -48 6 -55 15 -7 8 -17 15 -23 15 -6 0 -3 -6 6 -12z
m207 -202 c-6 -11 -80 -15 -80 -5 0 12 22 18 55 16 17 -1 28 -6 25 -11z"/>
<path d="M910 1639 c-19 -10 -45 -19 -58 -19 -49 0 -166 -70 -142 -85 6 -3 13
1 16 9 11 29 110 69 172 70 31 0 49 2 40 4 -10 2 -18 6 -18 9 0 3 8 12 18 19
24 19 13 16 -28 -7z"/>
<path d="M2120 1650 c0 -5 6 -7 14 -4 10 4 13 -5 13 -36 0 -22 2 -42 4 -44 6
-6 30 -9 66 -7 24 1 31 5 27 16 -4 8 -1 15 5 15 7 0 14 -6 17 -14 3 -8 14 -16
25 -19 18 -5 19 -4 2 25 -10 17 -29 34 -43 40 -14 5 -38 16 -54 24 -33 16 -76
19 -76 4z"/>
<path d="M1280 1611 c0 -6 4 -13 10 -16 6 -3 7 1 4 9 -7 18 -14 21 -14 7z"/>
<path d="M1823 1589 c20 -17 34 -35 32 -39 -9 -15 15 -22 30 -10 8 7 22 9 31
6 19 -7 13 -60 -11 -86 -21 -23 -47 -90 -35 -90 5 0 10 8 10 18 0 9 14 35 30
56 16 21 27 43 24 47 -3 5 0 9 5 9 15 0 14 37 -1 46 -7 4 -28 11 -48 14 -19 3
-34 12 -32 18 1 7 -4 12 -12 12 -7 0 -19 7 -26 15 -7 8 -17 15 -23 15 -6 0 6
-14 26 -31z"/>
<path d="M961 1607 c2 -2 18 -11 34 -21 l30 -17 -24 20 c-13 12 -28 21 -34 21
-6 0 -8 -1 -6 -3z"/>
<path d="M2730 1590 c-9 -6 -10 -10 -3 -10 6 0 15 5 18 10 8 12 4 12 -15 0z"/>
<path d="M1449 1563 c-13 -16 -12 -17 4 -4 9 7 17 15 17 17 0 8 -8 3 -21 -13z"/>
<path d="M1900 1571 c20 -4 41 -11 48 -15 19 -12 14 -60 -11 -97 -34 -51 -39
-59 -32 -59 13 0 65 96 65 121 0 34 -33 59 -75 58 -29 -1 -29 -1 5 -8z"/>
<path d="M980 1550 c0 -5 5 -10 10 -10 6 0 10 5 10 10 0 6 -4 10 -10 10 -5 0
-10 -4 -10 -10z"/>
<path d="M1376 1544 c-11 -8 -16 -14 -10 -14 13 0 39 18 34 24 -3 2 -14 -2
-24 -10z"/>
<path d="M646 1521 c-8 -15 -28 -36 -43 -46 -33 -21 -62 -55 -63 -72 0 -18 69
-123 80 -123 11 0 14 -33 3 -43 -3 -4 -16 7 -29 24 l-22 30 -16 -70 c-9 -38
-16 -73 -16 -76 0 -3 16 6 35 21 19 14 35 23 35 18 0 -4 7 1 15 12 8 10 15 34
15 52 0 19 5 32 13 32 20 0 34 14 41 40 6 23 6 23 -5 5 -29 -48 -61 -46 -99 7
-38 53 -38 81 2 121 34 34 55 22 22 -14 -9 -10 -12 -19 -7 -19 16 0 31 21 38
55 4 17 14 40 21 53 8 12 10 22 4 22 -5 0 -16 -13 -24 -29z m-16 -305 c0 -3
-4 -8 -10 -11 -5 -3 -10 -1 -10 4 0 6 5 11 10 11 6 0 10 -2 10 -4z"/>
<path d="M860 1540 c-13 -8 -12 -10 3 -10 9 0 17 5 17 10 0 12 -1 12 -20 0z"/>
<path d="M1498 1530 l-23 -19 43 -1 c45 0 55 13 23 30 -15 7 -25 5 -43 -10z"/>
<path d="M1780 1545 c0 -4 7 -20 16 -38 13 -24 15 -48 11 -112 -3 -44 -9 -89
-12 -100 -6 -16 -5 -17 4 -5 6 8 11 28 11 44 0 25 2 27 18 15 14 -11 15 -11 5
1 -8 8 -13 42 -13 82 0 65 -14 118 -32 118 -4 0 -8 -2 -8 -5z"/>
<path d="M2174 1525 c3 -5 20 -47 39 -93 19 -46 45 -96 58 -111 18 -21 24 -37
22 -69 -2 -40 -1 -41 44 -58 25 -10 52 -24 60 -32 7 -8 16 -12 18 -10 7 7 -42
205 -71 288 -15 41 -34 81 -42 88 -19 14 -66 16 -57 2 3 -5 -3 -10 -14 -10
-12 0 -21 4 -21 8 0 4 -9 8 -20 8 -11 0 -18 -5 -16 -11z"/>
<path d="M1677 1513 c-14 -13 -7 -23 16 -23 13 0 28 -5 35 -12 9 -9 12 -9 12
3 0 29 -44 52 -63 32z"/>
<path d="M883 1495 c4 -5 -1 -17 -10 -28 -17 -18 -17 -19 7 -16 28 4 35 39 10
47 -8 3 -12 1 -7 -3z"/>
<path d="M1467 1478 l-22 -19 25 14 c17 10 32 12 48 6 27 -10 30 -23 3 -14
-10 3 -25 3 -32 0 -18 -7 -22 -44 -7 -62 17 -21 38 -16 35 8 -3 30 21 36 32 7
9 -21 10 -19 10 13 1 20 -5 41 -11 46 -27 21 -58 21 -81 1z"/>
<path d="M835 1481 c-3 -5 -1 -12 5 -16 5 -3 10 1 10 9 0 18 -6 21 -15 7z"/>
<path d="M1613 1455 c0 -22 2 -30 4 -17 2 12 2 30 0 40 -3 9 -5 -1 -4 -23z"/>
<path d="M697 1465 c-4 -8 -2 -17 3 -20 6 -4 10 -4 10 -1 0 2 3 11 6 20 3 9 2
16 -4 16 -5 0 -12 -7 -15 -15z"/>
<path d="M1711 1449 c14 -5 30 -22 36 -37 9 -21 11 -22 9 -5 -3 30 -25 53 -50
52 -19 0 -18 -2 5 -10z"/>
<path d="M1675 1430 c-4 -6 -10 -8 -15 -5 -4 3 -7 -1 -6 -7 7 -31 19 -48 36
-48 13 0 16 6 12 25 -3 19 0 25 14 25 16 0 17 2 4 10 -20 13 -37 13 -45 0z"/>
<path d="M703 1385 c0 -22 2 -30 4 -17 2 12 2 30 0 40 -3 9 -5 -1 -4 -23z"/>
<path d="M1621 1394 c0 -11 3 -14 6 -6 3 7 2 16 -1 19 -3 4 -6 -2 -5 -13z"/>
<path d="M830 1380 c0 -5 4 -10 9 -10 5 0 23 -22 39 -49 21 -34 38 -50 59 -54
15 -3 40 -18 56 -32 30 -29 37 -23 10 8 -18 20 -17 20 17 13 19 -3 41 -14 48
-23 6 -9 12 -13 12 -7 -1 23 -51 63 -86 70 -53 9 -108 38 -132 69 -21 26 -32
32 -32 15z"/>
<path d="M1372 1360 c0 -19 2 -27 5 -17 2 9 2 25 0 35 -3 9 -5 1 -5 -18z"/>
<path d="M1485 1370 c3 -5 12 -7 20 -3 21 7 19 13 -6 13 -11 0 -18 -4 -14 -10z"/>
<path d="M1159 1323 c-13 -16 -12 -17 4 -4 9 7 17 15 17 17 0 8 -8 3 -21 -13z"/>
<path d="M1098 1297 c-10 -6 -9 -8 3 -4 9 3 21 1 26 -4 6 -6 10 -5 10 4 0 16
-20 18 -39 4z"/>
<path d="M1727 1304 c-4 -4 -7 -14 -7 -23 0 -11 3 -12 11 -4 6 6 10 16 7 23
-2 6 -7 8 -11 4z"/>
<path d="M1403 1284 c9 -11 17 -25 17 -30 0 -6 6 -18 13 -27 10 -15 12 -10 13
30 1 27 0 37 -3 25 l-5 -24 -26 24 c-21 18 -23 19 -9 2z"/>
<path d="M1533 1280 c-1 -11 2 -22 8 -25 16 -10 10 -38 -13 -63 l-23 -25 32
17 c18 9 36 23 41 32 7 13 10 10 14 -16 4 -28 3 -30 -7 -16 -11 14 -14 14 -25
2 -10 -13 -8 -16 12 -20 49 -10 56 -5 47 33 -6 29 -4 37 12 49 28 20 23 35 -6
16 -21 -14 -30 -14 -55 -4 -16 7 -27 16 -25 20 3 5 2 11 -3 14 -4 2 -8 -4 -9
-14z"/>
<path d="M1750 1250 c-18 -13 -27 -15 -32 -7 -5 7 -8 3 -8 -11 l0 -23 38 28
c20 15 39 28 41 30 2 2 0 3 -5 3 -5 0 -20 -9 -34 -20z"/>
<path d="M940 1235 c13 -14 26 -25 28 -25 3 0 -5 11 -18 25 -13 14 -26 25 -28
25 -3 0 5 -11 18 -25z"/>
<path d="M1143 1235 c2 -25 -2 -30 -18 -28 -11 1 -14 0 -7 -3 6 -3 12 -12 12
-19 0 -17 33 -50 75 -76 36 -23 52 -25 35 -4 -7 8 -18 15 -25 15 -7 0 -25 10
-40 22 -23 18 -26 26 -21 57 3 20 1 43 -4 51 -7 11 -9 7 -7 -15z"/>
<path d="M1080 1199 c0 -5 5 -7 10 -4 6 3 10 8 10 11 0 2 -4 4 -10 4 -5 0 -10
-5 -10 -11z"/>
<path d="M640 1180 c-1 -8 -3 -43 -6 -78 -2 -35 -9 -72 -15 -83 -6 -12 -9 -23
-6 -25 7 -7 38 63 44 99 2 18 0 48 -5 67 -6 19 -11 28 -12 20z"/>
<path d="M765 1170 c22 -10 49 -19 60 -19 11 0 -5 9 -35 19 -67 25 -78 24 -25
0z"/>
<path d="M989 1175 c-3 -12 6 -31 24 -50 l28 -30 19 24 c11 13 20 33 19 45 0
15 -4 11 -12 -14 -18 -54 -39 -47 -65 20 -8 23 -10 23 -13 5z"/>
<path d="M2300 1185 c0 -1 9 -38 19 -81 11 -44 25 -105 31 -137 6 -31 15 -55
19 -53 4 3 20 24 36 46 23 33 28 51 26 87 -3 68 -14 84 -50 73 -16 -4 -32 -6
-35 -2 -12 11 -5 21 17 24 19 3 16 7 -20 25 -24 12 -43 20 -43 18z"/>
<path d="M595 1150 c-3 -5 1 -10 9 -10 9 0 16 5 16 10 0 6 -4 10 -9 10 -6 0
-13 -4 -16 -10z"/>
<path d="M541 1101 c-25 -46 -7 -124 37 -164 19 -17 19 -17 25 55 4 40 9 84
12 98 6 24 4 26 -29 28 -26 2 -38 -2 -45 -17z"/>
<path d="M1421 1104 c0 -11 3 -14 6 -6 3 7 2 16 -1 19 -3 4 -6 -2 -5 -13z"/>
<path d="M746 1077 c3 -9 10 -18 15 -18 18 -3 25 -5 49 -18 l25 -12 -25 20
c-14 11 -27 18 -29 15 -2 -2 -13 4 -23 13 -18 16 -18 16 -12 0z"/>
<path d="M1250 1070 c8 -5 11 -10 6 -10 -5 0 8 -13 29 -30 55 -44 67 -36 17
10 -24 22 -49 40 -55 40 -7 0 -6 -4 3 -10z"/>
<path d="M1472 1050 c0 -19 2 -27 5 -17 2 9 2 25 0 35 -3 9 -5 1 -5 -18z"/>
<path d="M2135 1050 c3 -5 10 -10 16 -10 5 0 9 5 9 10 0 6 -7 10 -16 10 -8 0
-12 -4 -9 -10z"/>
<path d="M1930 1030 c6 -12 18 -24 26 -27 7 -3 11 -10 7 -16 -4 -6 -1 -7 7 -2
10 6 10 11 -3 20 -9 7 -14 15 -11 18 3 3 -4 11 -16 17 -20 11 -21 10 -10 -10z"/>
<path d="M2101 1009 c-12 -19 -21 -37 -21 -41 0 -13 -75 -9 -90 5 -12 10 -12
9 -1 -5 17 -23 89 -25 97 -3 4 8 11 12 17 8 6 -4 8 0 4 10 -3 10 -2 17 4 17 6
0 8 4 5 9 -4 5 0 11 6 14 7 2 10 8 6 12 -4 4 -16 -8 -27 -26z"/>
<path d="M711 990 c0 -14 4 -32 9 -40 8 -12 10 -12 9 5 0 11 -4 29 -9 40 -8
18 -9 18 -9 -5z"/>
<path d="M626 973 c-3 -16 -9 -39 -12 -53 -12 -44 5 -15 20 33 8 26 11 47 6
47 -4 0 -10 -12 -14 -27z"/>
<path d="M1375 990 c3 -5 8 -10 11 -10 2 0 4 5 4 10 0 6 -5 10 -11 10 -5 0 -7
-4 -4 -10z"/>
<path d="M748 955 c6 -11 21 -29 34 -40 22 -19 22 -19 -2 10 -40 48 -43 51
-32 30z"/>
<path d="M1132 950 c0 -14 2 -19 5 -12 2 6 2 18 0 25 -3 6 -5 1 -5 -13z"/>
<path d="M1175 950 c10 -11 20 -20 23 -20 3 0 -3 9 -13 20 -10 11 -20 20 -23
20 -3 0 3 -9 13 -20z"/>
<path d="M516 877 c-8 -114 -7 -219 3 -235 7 -11 9 -11 14 2 8 21 27 20 43 -1
11 -15 13 1 14 109 l0 126 -34 40 -33 40 -7 -81z"/>
<path d="M2403 920 l-33 -39 0 -125 c0 -77 4 -126 10 -126 6 0 10 7 10 15 0
22 21 18 27 -4 3 -12 11 -17 19 -14 11 4 14 30 13 117 -1 61 -4 134 -7 163
l-7 52 -32 -39z"/>
<path d="M807 923 c5 -13 52 -38 58 -31 2 2 -12 13 -31 25 -23 15 -31 17 -27
6z"/>
<path d="M638 909 c-10 -33 10 -108 23 -88 6 10 9 7 9 -13 0 -14 9 -55 20 -90
11 -34 20 -74 20 -88 0 -14 5 -32 11 -40 8 -11 9 -4 4 25 -4 22 -9 65 -11 95
-2 31 -10 75 -19 99 -8 24 -15 53 -15 65 -1 20 -2 19 -15 -4 -13 -25 -14 -24
-17 20 -2 38 -4 41 -10 19z"/>
<path d="M876 920 c6 -6 25 -15 44 -20 43 -12 26 3 -20 19 -22 7 -31 8 -24 1z"/>
<path d="M963 923 c9 -2 25 -2 35 0 9 3 1 5 -18 5 -19 0 -27 -2 -17 -5z"/>
<path d="M2088 913 c7 -3 16 -2 19 1 4 3 -2 6 -13 5 -11 0 -14 -3 -6 -6z"/>
<path d="M1411 894 c0 -11 3 -14 6 -6 3 7 2 16 -1 19 -3 4 -6 -2 -5 -13z"/>
<path d="M1960 876 c0 -9 -9 -24 -19 -33 -26 -22 -18 -33 17 -24 31 8 41 41
17 61 -12 10 -15 10 -15 -4z"/>
<path d="M728 854 c6 -11 18 -28 27 -39 15 -19 15 -18 1 12 -9 17 -21 35 -27
39 -8 4 -8 1 -1 -12z"/>
<path d="M2118 863 c7 -3 16 -2 19 1 4 3 -2 6 -13 5 -11 0 -14 -3 -6 -6z"/>
<path d="M1334 848 c-4 -6 -2 -14 4 -16 7 -2 12 -10 12 -18 0 -8 4 -14 9 -14
5 0 16 -3 24 -6 11 -4 13 1 9 22 -4 21 -2 25 9 19 12 -8 12 -6 0 8 -16 20 -56
23 -67 5z"/>
<path d="M785 820 c3 -6 21 -17 38 -26 l32 -15 -30 25 c-30 26 -51 34 -40 16z"/>
<path d="M1240 808 c11 -12 23 -19 26 -15 9 9 -15 37 -33 37 -10 0 -8 -6 7
-22z"/>
<path d="M874 795 c11 -8 29 -15 40 -15 25 0 19 4 -24 18 -32 11 -33 10 -16
-3z"/>
<path d="M1442 785 c0 -16 2 -22 5 -12 2 9 2 23 0 30 -3 6 -5 -1 -5 -18z"/>
<path d="M1614 720 c0 -52 1 -74 3 -47 2 26 2 68 0 95 -2 26 -3 4 -3 -48z"/>
<path d="M973 793 c9 -2 25 -2 35 0 9 3 1 5 -18 5 -19 0 -27 -2 -17 -5z"/>
<path d="M1786 784 c-3 -8 -2 -13 3 -9 5 3 23 -7 40 -21 42 -35 39 -25 -3 14
-27 24 -35 28 -40 16z"/>
<path d="M2206 783 c-6 -14 -5 -15 5 -6 7 7 10 15 7 18 -3 3 -9 -2 -12 -12z"/>
<path d="M730 740 c0 -25 38 -100 51 -100 8 0 8 4 1 13 -6 7 -20 33 -31 58
-11 24 -21 37 -21 29z"/>
<path d="M1896 737 c3 -10 9 -15 12 -12 3 3 0 11 -7 18 -10 9 -11 8 -5 -6z"/>
<path d="M2170 740 c-9 -6 -10 -10 -3 -10 6 0 15 5 18 10 8 12 4 12 -15 0z"/>
<path d="M1403 705 c-3 -9 2 -42 12 -73 23 -79 23 -79 24 -60 1 10 -6 38 -15
64 -9 26 -13 55 -11 65 6 23 -1 25 -10 4z"/>
<path d="M2161 704 c0 -11 3 -14 6 -6 3 7 2 16 -1 19 -3 4 -6 -2 -5 -13z"/>
<path d="M830 687 c8 -9 31 -19 50 -22 l35 -5 -35 11 c-19 6 -42 16 -50 22
-13 9 -13 9 0 -6z"/>
<path d="M918 683 c7 -3 16 -2 19 1 4 3 -2 6 -13 5 -11 0 -14 -3 -6 -6z"/>
<path d="M1897 675 c-4 -8 -2 -17 3 -20 6 -4 10 3 10 14 0 25 -6 27 -13 6z"/>
<path d="M2170 672 c0 -5 15 -22 33 -38 39 -36 72 -56 37 -23 -14 13 -35 34
-47 47 -13 13 -23 19 -23 14z"/>
<path d="M810 639 c17 -30 81 -99 93 -99 5 0 2 9 -7 19 -13 15 -14 20 -4 25 7
3 4 4 -8 1 -16 -4 -28 4 -49 35 -30 43 -43 53 -25 19z"/>
<path d="M1087 629 c7 -7 15 -10 18 -7 3 3 -2 9 -12 12 -14 6 -15 5 -6 -5z"/>
<path d="M1481 624 c0 -11 3 -14 6 -6 3 7 2 16 -1 19 -3 4 -6 -2 -5 -13z"/>
<path d="M1149 593 c-13 -16 -12 -17 4 -4 16 13 21 21 13 21 -2 0 -10 -8 -17
-17z"/>
<path d="M2275 560 c10 -11 20 -20 23 -20 3 0 -3 9 -13 20 -10 11 -20 20 -23
20 -3 0 3 -9 13 -20z"/>
<path d="M694 548 l-19 -23 25 20 c14 11 27 21 29 22 2 2 0 3 -6 3 -5 0 -18
-10 -29 -22z"/>
<path d="M1109 543 l-24 -28 28 24 c25 23 32 31 24 31 -2 0 -14 -12 -28 -27z"/>
<path d="M806 551 c-3 -5 2 -15 12 -22 15 -12 16 -12 5 2 -7 9 -10 19 -6 22 3
4 4 7 0 7 -3 0 -8 -4 -11 -9z"/>
<path d="M936 538 c10 -15 28 -29 38 -32 10 -3 15 -2 10 2 -5 4 -22 18 -38 32
l-29 25 19 -27z"/>
<path d="M1034 535 c1 -16 7 -38 12 -48 10 -17 12 -17 24 -2 11 13 11 15 0 13
-7 -2 -18 13 -26 32 -13 35 -13 35 -10 5z"/>
<path d="M1872 540 c0 -14 2 -19 5 -12 2 6 2 18 0 25 -3 6 -5 1 -5 -13z"/>
<path d="M1436 493 c-4 -31 -9 -69 -12 -83 -4 -23 -4 -24 5 -3 11 24 26 143
19 143 -3 0 -8 -26 -12 -57z"/>
<path d="M587 520 c-5 -19 -9 -22 -18 -13 -9 9 -15 8 -27 -3 -12 -12 -14 -31
-9 -86 3 -39 11 -76 17 -82 5 -5 10 -18 10 -27 0 -10 4 -20 8 -23 4 -2 6 11 4
30 -3 21 0 34 7 34 13 0 30 -40 33 -76 2 -16 7 -23 16 -19 8 3 16 5 18 5 3 0
0 9 -6 21 -6 11 -19 75 -29 142 -12 84 -19 114 -24 97z"/>
<path d="M2335 467 c19 -38 35 -77 35 -87 0 -10 4 -21 9 -24 15 -10 21 -79 8
-95 -9 -12 -9 -13 1 -7 8 5 12 0 12 -18 0 -34 -10 -57 -23 -49 -6 4 -7 1 -3
-6 12 -19 -22 -50 -63 -58 l-36 -7 30 -6 c25 -5 35 0 62 30 37 41 45 26 9 -17
-28 -33 -81 -52 -171 -63 l-60 -7 65 -1 c125 -3 210 67 210 171 0 71 -58 234
-104 292 -9 11 0 -11 19 -48z"/>
<path d="M1831 517 c2 -1 14 -11 27 -21 12 -11 22 -16 22 -13 0 10 -31 37 -42
37 -6 0 -9 -1 -7 -3z"/>
<path d="M2395 509 c-4 -6 -14 -8 -22 -5 -19 8 -14 -17 20 -97 l24 -58 7 32
c10 53 7 110 -8 125 -10 10 -17 11 -21 3z"/>
<path d="M894 486 c-3 -14 -10 -26 -15 -26 -5 0 -9 -7 -9 -15 0 -28 17 -15 28
22 6 20 9 39 7 41 -2 2 -7 -7 -11 -22z"/>
<path d="M730 490 c-9 -6 -10 -10 -3 -10 6 0 15 5 18 10 8 12 4 12 -15 0z"/>
<path d="M942 450 c0 -19 2 -27 5 -17 2 9 2 25 0 35 -3 9 -5 1 -5 -18z"/>
<path d="M723 380 c0 -30 2 -43 4 -27 2 15 2 39 0 55 -2 15 -4 2 -4 -28z"/>
<path d="M750 424 c0 -6 7 -19 16 -30 14 -18 14 -18 3 6 -14 31 -19 36 -19 24z"/>
<path d="M1651 404 c0 -11 3 -14 6 -6 3 7 2 16 -1 19 -3 4 -6 -2 -5 -13z"/>
<path d="M1861 404 c0 -11 3 -14 6 -6 3 7 2 16 -1 19 -3 4 -6 -2 -5 -13z"/>
<path d="M842 380 c0 -19 2 -27 5 -17 2 9 2 25 0 35 -3 9 -5 1 -5 -18z"/>
<path d="M2030 378 c-11 -18 -20 -40 -20 -48 1 -8 7 -1 14 15 17 39 41 59 62
51 14 -5 16 -17 11 -74 -2 -37 -3 -57 0 -44 2 12 8 22 13 22 4 0 6 9 3 19 -3
11 2 30 11 43 9 12 16 27 16 33 0 5 -4 4 -9 -4 -8 -12 -12 -12 -26 2 -26 26
-53 20 -75 -15z"/>
<path d="M1006 385 c-9 -26 -7 -32 5 -12 6 10 9 21 6 23 -2 3 -7 -2 -11 -11z"/>
<path d="M2224 365 c-18 -14 -17 -15 11 -9 37 8 57 24 29 24 -11 0 -29 -7 -40
-15z"/>
<path d="M1651 354 c0 -11 3 -14 6 -6 3 7 2 16 -1 19 -3 4 -6 -2 -5 -13z"/>
<path d="M2269 347 c-22 -15 -35 -32 -37 -50 -2 -15 1 -27 5 -27 16 0 33 24
33 47 0 16 8 27 25 33 14 5 25 12 25 15 0 11 -18 4 -51 -18z"/>
<path d="M2172 353 c-6 -2 -10 -9 -6 -14 8 -14 21 -11 28 6 6 15 1 17 -22 8z"/>
<path d="M490 341 c0 -5 -9 -7 -20 -4 -11 3 -20 3 -20 0 0 -9 35 -14 54 -7 18
6 18 7 3 13 -9 3 -17 2 -17 -2z"/>
<path d="M1390 321 c-6 -17 -28 -48 -48 -69 -30 -33 -36 -45 -31 -68 6 -29 6
-29 13 8 5 21 24 54 45 76 20 21 37 48 38 60 4 30 -2 27 -17 -7z"/>
<path d="M2495 340 c-3 -5 -1 -10 4 -10 6 0 11 5 11 10 0 6 -2 10 -4 10 -3 0
-8 -4 -11 -10z"/>
<path d="M2458 333 c6 -2 9 -10 6 -15 -4 -7 -2 -8 5 -4 13 9 5 26 -12 25 -9 0
-8 -2 1 -6z"/>
<path d="M1171 314 c0 -11 3 -14 6 -6 3 7 2 16 -1 19 -3 4 -6 -2 -5 -13z"/>
<path d="M437 313 c-12 -3 -16 -10 -12 -24 4 -13 2 -19 -9 -19 -20 0 -20 -14
-2 -33 8 -8 14 -22 13 -33 -2 -14 4 -19 21 -18 15 0 21 -5 20 -15 -2 -10 6
-17 22 -19 14 -2 29 -10 33 -18 12 -20 30 -17 55 9 24 25 31 64 10 50 -20 -12
-89 -14 -107 -2 -12 7 -6 9 24 4 l40 -7 -30 33 c-16 18 -22 27 -13 20 20 -15
42 -5 34 15 -3 8 -2 14 2 14 13 0 8 39 -6 45 -7 2 -10 0 -7 -5 3 -6 1 -10 -4
-10 -6 0 -11 -10 -11 -22 0 -21 0 -21 -20 -3 -18 17 -20 17 -14 2 4 -10 1 -17
-6 -17 -9 0 -7 -7 5 -20 10 -11 16 -22 13 -25 -8 -8 -52 11 -67 29 -12 14 -11
16 8 16 24 0 27 10 9 28 -9 9 -8 12 5 12 9 0 17 5 17 10 0 6 -1 9 -2 9 -2 -1
-11 -3 -21 -6z m28 -113 c-3 -5 -13 -10 -21 -10 -8 0 -14 5 -14 10 0 6 9 10
21 10 11 0 17 -4 14 -10z m48 -37 c-7 -2 -21 -2 -30 0 -10 3 -4 5 12 5 17 0
24 -2 18 -5z m62 -13 c-10 -11 -25 -20 -33 -20 -12 0 -12 4 3 20 10 11 25 20
33 20 12 0 12 -4 -3 -20z"/>
<path d="M871 304 c0 -11 3 -14 6 -6 3 7 2 16 -1 19 -3 4 -6 -2 -5 -13z"/>
<path d="M2182 308 c-13 -13 -16 -58 -4 -58 14 0 32 23 32 41 0 23 -14 31 -28
17z"/>
<path d="M2292 308 c-18 -18 -15 -51 3 -44 8 3 15 3 15 0 0 -3 -7 -12 -15 -20
-8 -9 -15 -21 -15 -27 1 -7 9 -2 20 11 12 14 19 37 18 58 -1 36 -7 41 -26 22z"/>
<path d="M2430 300 c0 -14 3 -35 6 -48 6 -19 9 -21 23 -10 13 10 12 9 -1 -8
-26 -29 -22 -42 10 -37 21 4 24 2 12 -6 -8 -6 -22 -11 -31 -11 -9 0 -19 -10
-22 -22 -7 -24 3 -41 10 -20 3 6 15 12 28 12 13 0 26 4 29 8 3 5 -9 7 -27 5
-19 -1 -12 2 18 10 39 10 50 17 48 31 -1 11 5 25 13 33 18 19 18 33 -2 33 -11
0 -13 6 -9 19 10 32 -26 30 -57 -4 -24 -26 -27 -28 -28 -10 0 11 -5 27 -10 35
-8 12 -10 10 -10 -10z m90 -20 c-10 -19 -40 -28 -40 -12 0 13 23 32 37 32 11
0 11 -5 3 -20z m16 -39 c-18 -20 -66 -34 -66 -20 0 13 43 39 64 39 18 0 18 -1
2 -19z m-6 -41 c0 -5 -7 -10 -15 -10 -8 0 -15 5 -15 10 0 6 7 10 15 10 8 0 15
-4 15 -10z"/>
<path d="M712 290 c0 -14 2 -19 5 -12 2 6 2 18 0 25 -3 6 -5 1 -5 -13z"/>
<path d="M983 250 c0 -36 2 -50 4 -32 2 17 2 47 0 65 -2 17 -4 3 -4 -33z"/>
<path d="M1095 300 c3 -5 8 -10 11 -10 2 0 4 5 4 10 0 6 -5 10 -11 10 -5 0 -7
-4 -4 -10z"/>
<path d="M1661 294 c0 -11 3 -14 6 -6 3 7 2 16 -1 19 -3 4 -6 -2 -5 -13z"/>
<path d="M1997 303 c-2 -5 -1 -19 4 -33 7 -23 7 -23 8 8 1 31 -3 40 -12 25z"/>
<path d="M1951 264 c0 -11 3 -14 6 -6 3 7 2 16 -1 19 -3 4 -6 -2 -5 -13z"/>
<path d="M1382 245 c0 -16 2 -22 5 -12 2 9 2 23 0 30 -3 6 -5 -1 -5 -18z"/>
<path d="M1501 244 c0 -11 3 -14 6 -6 3 7 2 16 -1 19 -3 4 -6 -2 -5 -13z"/>
<path d="M560 246 c0 -2 8 -10 18 -17 15 -13 16 -12 3 4 -13 16 -21 21 -21 13z"/>
<path d="M696 235 c-3 -8 -1 -15 4 -15 6 0 10 7 10 15 0 8 -2 15 -4 15 -2 0
-6 -7 -10 -15z"/>
<path d="M859 248 c-5 -16 -2 -71 3 -75 5 -2 8 14 8 36 0 23 -2 41 -5 41 -3 0
-5 -1 -6 -2z"/>
<path d="M1571 234 c0 -11 3 -14 6 -6 3 7 2 16 -1 19 -3 4 -6 -2 -5 -13z"/>
<path d="M2205 234 c-37 -19 -61 -41 -53 -50 4 -3 25 -8 47 -11 36 -5 41 -3
52 20 11 25 7 57 -8 57 -4 0 -21 -7 -38 -16z"/>
<path d="M2011 224 c0 -11 3 -14 6 -6 3 7 2 16 -1 19 -3 4 -6 -2 -5 -13z"/>
<path d="M550 221 c0 -5 7 -12 16 -15 14 -5 15 -4 4 9 -14 17 -20 19 -20 6z"/>
<path d="M790 192 c0 -6 -7 -18 -16 -26 -8 -9 -11 -16 -5 -16 13 0 35 39 27
48 -3 3 -6 0 -6 -6z"/>
<path d="M1231 163 c12 -21 31 -47 42 -58 10 -11 2 6 -18 38 -42 64 -59 78
-24 20z"/>
<path d="M2017 186 c-3 -8 0 -17 7 -19 10 -4 12 1 9 14 -6 23 -9 24 -16 5z"/>
<path d="M624 165 c1 -16 9 -21 44 -23 23 -2 42 1 42 5 0 5 -18 7 -39 5 -32
-3 -40 0 -44 15 -3 15 -4 15 -3 -2z"/>
<path d="M981 164 c0 -11 3 -14 6 -6 3 7 2 16 -1 19 -3 4 -6 -2 -5 -13z"/>
<path d="M1334 158 c4 -17 2 -28 -7 -31 -6 -3 -3 -6 8 -6 15 -1 17 -3 7 -10
-11 -6 -9 -9 7 -14 20 -5 20 -4 4 37 -20 50 -28 61 -19 24z"/>
<path d="M1466 171 c-4 -5 3 -7 14 -4 23 6 26 13 6 13 -8 0 -17 -4 -20 -9z"/>
<path d="M1817 159 c12 -12 24 -21 27 -18 2 2 -8 13 -22 23 l-27 19 22 -24z"/>
<path d="M2115 161 c25 -29 92 -64 99 -52 3 5 -6 12 -22 16 -15 3 -43 18 -62
33 -32 23 -33 23 -15 3z"/>
<path d="M1720 161 c0 -5 -8 -12 -17 -14 -14 -4 -12 -5 5 -6 13 -1 22 5 22 14
0 8 -2 15 -5 15 -3 0 -5 -4 -5 -9z"/>
<path d="M1592 130 c0 -14 2 -19 5 -12 2 6 2 18 0 25 -3 6 -5 1 -5 -13z"/>
<path d="M2050 130 c12 -26 76 -77 86 -67 3 3 -4 8 -15 12 -11 3 -34 23 -51
43 -24 28 -29 31 -20 12z"/>
<path d="M1408 134 c6 -3 12 -12 12 -19 0 -7 -6 -16 -12 -18 -7 -3 1 -6 17 -6
19 0 25 2 17 8 -7 4 -12 14 -10 21 2 8 -6 15 -17 17 -11 1 -14 0 -7 -3z"/>
<path d="M820 126 c0 -2 8 -10 18 -17 15 -13 16 -12 3 4 -13 16 -21 21 -21 13z"/>
<path d="M923 113 c9 -2 23 -2 30 0 6 3 -1 5 -18 5 -16 0 -22 -2 -12 -5z"/>
<path d="M983 105 c-9 -10 -7 -14 13 -18 21 -4 23 -2 12 12 -7 9 -12 17 -13
17 0 1 -5 -4 -12 -11z"/>
<path d="M1761 93 c-1 -17 -10 -24 -43 -31 -24 -6 -32 -10 -18 -10 14 0 37 3
51 7 21 5 24 10 18 31 -6 23 -7 23 -8 3z"/>
<path d="M2235 100 c4 -6 11 -8 16 -5 14 9 11 15 -7 15 -8 0 -12 -5 -9 -10z"/>
<path d="M935 90 c-16 -7 -17 -9 -3 -9 9 -1 20 4 23 9 7 11 7 11 -20 0z"/>
<path d="M1095 91 c-3 -5 0 -13 6 -17 7 -4 9 -3 5 4 -3 5 0 13 6 15 9 4 10 6
1 6 -6 1 -14 -3 -18 -8z"/>
<path d="M1973 93 c9 -2 23 -2 30 0 6 3 -1 5 -18 5 -16 0 -22 -2 -12 -5z"/>
<path d="M1810 78 c0 -4 14 -8 32 -8 17 0 28 3 25 7 -10 9 -57 10 -57 1z"/>
<path d="M1065 70 c-3 -5 -1 -10 4 -10 6 0 11 5 11 10 0 6 -2 10 -4 10 -3 0
-8 -4 -11 -10z"/>
<path d="M1430 70 c0 -5 5 -10 10 -10 6 0 10 5 10 10 0 6 -4 10 -10 10 -5 0
-10 -4 -10 -10z"/>
<path d="M1144 39 c-3 -5 6 -9 20 -9 31 0 34 6 6 13 -11 3 -23 1 -26 -4z"/>
<path d="M1638 43 c6 -2 18 -2 25 0 6 3 1 5 -13 5 -14 0 -19 -2 -12 -5z"/>
<path d="M1398 33 c6 -2 18 -2 25 0 6 3 1 5 -13 5 -14 0 -19 -2 -12 -5z"/>
</g>
</svg>
